<?xml version="1.0" encoding="UTF-8" standalone="no"?>
<!DOCTYPE svg PUBLIC "-//W3C//DTD SVG 1.1//EN"
 "http://www.w3.org/Graphics/SVG/1.1/DTD/svg11.dtd">
<!-- Generated by graphviz version 2.42.3 (20191010.1750)
 -->
<!-- Title: snakemake_dag Pages: 1 -->
<svg width="473pt" height="1340pt"
 viewBox="0.00 0.00 473.24 1340.00" xmlns="http://www.w3.org/2000/svg" xmlns:xlink="http://www.w3.org/1999/xlink">
<g id="graph0" class="graph" transform="scale(1 1) rotate(0) translate(4 1336)">
<title>snakemake_dag</title>
<polygon fill="white" stroke="transparent" points="-4,4 -4,-1336 469.24,-1336 469.24,4 -4,4"/>
<!-- 0 -->
<g id="node1" class="node">
<title>0</title>
<path fill="none" stroke="#56d8a2" stroke-width="2" d="M227,-36C227,-36 197,-36 197,-36 191,-36 185,-30 185,-24 185,-24 185,-12 185,-12 185,-6 191,0 197,0 197,0 227,0 227,0 233,0 239,-6 239,-12 239,-12 239,-24 239,-24 239,-30 233,-36 227,-36"/>
<text text-anchor="middle" x="212" y="-15.5" font-family="sans" font-size="10.00">all</text>
</g>
<!-- 1 -->
<g id="node2" class="node">
<title>1</title>
<path fill="none" stroke="#d8b456" stroke-width="2" d="M172.5,-324C172.5,-324 137.5,-324 137.5,-324 131.5,-324 125.5,-318 125.5,-312 125.5,-312 125.5,-300 125.5,-300 125.5,-294 131.5,-288 137.5,-288 137.5,-288 172.5,-288 172.5,-288 178.5,-288 184.5,-294 184.5,-300 184.5,-300 184.5,-312 184.5,-312 184.5,-318 178.5,-324 172.5,-324"/>
<text text-anchor="middle" x="155" y="-303.5" font-family="sans" font-size="10.00">joinplots</text>
</g>
<!-- 1&#45;&gt;0 -->
<g id="edge1" class="edge">
<title>1&#45;&gt;0</title>
<path fill="none" stroke="grey" stroke-width="2" d="M157.89,-287.98C164.51,-249.41 181.55,-152.46 199,-72 200.84,-63.54 203.02,-54.36 205.06,-46.06"/>
<polygon fill="grey" stroke="grey" stroke-width="2" points="208.52,-46.68 207.55,-36.13 201.73,-44.98 208.52,-46.68"/>
</g>
<!-- 2 -->
<g id="node3" class="node">
<title>2</title>
<path fill="none" stroke="#afd856" stroke-width="2" d="M290.5,-108C290.5,-108 219.5,-108 219.5,-108 213.5,-108 207.5,-102 207.5,-96 207.5,-96 207.5,-84 207.5,-84 207.5,-78 213.5,-72 219.5,-72 219.5,-72 290.5,-72 290.5,-72 296.5,-72 302.5,-78 302.5,-84 302.5,-84 302.5,-96 302.5,-96 302.5,-102 296.5,-108 290.5,-108"/>
<text text-anchor="middle" x="255" y="-87.5" font-family="sans" font-size="10.00">create_trackhub</text>
</g>
<!-- 2&#45;&gt;0 -->
<g id="edge2" class="edge">
<title>2&#45;&gt;0</title>
<path fill="none" stroke="grey" stroke-width="2" d="M244.37,-71.7C239.37,-63.56 233.31,-53.69 227.79,-44.7"/>
<polygon fill="grey" stroke="grey" stroke-width="2" points="230.72,-42.79 222.51,-36.1 224.76,-46.46 230.72,-42.79"/>
</g>
<!-- 3 -->
<g id="node4" class="node">
<title>3</title>
<path fill="none" stroke="#ced856" stroke-width="2" d="M139.5,-396C139.5,-396 88.5,-396 88.5,-396 82.5,-396 76.5,-390 76.5,-384 76.5,-384 76.5,-372 76.5,-372 76.5,-366 82.5,-360 88.5,-360 88.5,-360 139.5,-360 139.5,-360 145.5,-360 151.5,-366 151.5,-372 151.5,-372 151.5,-384 151.5,-384 151.5,-390 145.5,-396 139.5,-396"/>
<text text-anchor="middle" x="114" y="-375.5" font-family="sans" font-size="10.00">averageplot</text>
</g>
<!-- 3&#45;&gt;1 -->
<g id="edge4" class="edge">
<title>3&#45;&gt;1</title>
<path fill="none" stroke="grey" stroke-width="2" d="M124.13,-359.7C128.85,-351.64 134.56,-341.89 139.78,-332.98"/>
<polygon fill="grey" stroke="grey" stroke-width="2" points="142.95,-334.5 144.98,-324.1 136.91,-330.96 142.95,-334.5"/>
</g>
<!-- 4 -->
<g id="node5" class="node">
<title>4</title>
<path fill="none" stroke="#56d0d8" stroke-width="2" d="M214.5,-396C214.5,-396 181.5,-396 181.5,-396 175.5,-396 169.5,-390 169.5,-384 169.5,-384 169.5,-372 169.5,-372 169.5,-366 175.5,-360 181.5,-360 181.5,-360 214.5,-360 214.5,-360 220.5,-360 226.5,-366 226.5,-372 226.5,-372 226.5,-384 226.5,-384 226.5,-390 220.5,-396 214.5,-396"/>
<text text-anchor="middle" x="198" y="-375.5" font-family="sans" font-size="10.00">heatplot</text>
</g>
<!-- 4&#45;&gt;1 -->
<g id="edge5" class="edge">
<title>4&#45;&gt;1</title>
<path fill="none" stroke="grey" stroke-width="2" d="M187.37,-359.7C182.37,-351.56 176.31,-341.69 170.79,-332.7"/>
<polygon fill="grey" stroke="grey" stroke-width="2" points="173.72,-330.79 165.51,-324.1 167.76,-334.46 173.72,-330.79"/>
</g>
<!-- 5 -->
<g id="node6" class="node">
<title>5</title>
<path fill="none" stroke="#d85e56" stroke-width="2" d="M64,-540C64,-540 34,-540 34,-540 28,-540 22,-534 22,-528 22,-528 22,-516 22,-516 22,-510 28,-504 34,-504 34,-504 64,-504 64,-504 70,-504 76,-510 76,-516 76,-516 76,-528 76,-528 76,-534 70,-540 64,-540"/>
<text text-anchor="middle" x="49" y="-519.5" font-family="sans" font-size="10.00">tssplot</text>
</g>
<!-- 5&#45;&gt;1 -->
<g id="edge3" class="edge">
<title>5&#45;&gt;1</title>
<path fill="none" stroke="grey" stroke-width="2" d="M46.44,-503.88C42.68,-472.6 38.97,-405.24 68,-360 79.2,-342.54 98.4,-329.96 115.92,-321.44"/>
<polygon fill="grey" stroke="grey" stroke-width="2" points="117.76,-324.45 125.41,-317.13 114.86,-318.08 117.76,-324.45"/>
</g>
<!-- 6 -->
<g id="node7" class="node">
<title>6</title>
<path fill="none" stroke="#97d856" stroke-width="2" d="M312,-180C312,-180 218,-180 218,-180 212,-180 206,-174 206,-168 206,-168 206,-156 206,-156 206,-150 212,-144 218,-144 218,-144 312,-144 312,-144 318,-144 324,-150 324,-156 324,-156 324,-168 324,-168 324,-174 318,-180 312,-180"/>
<text text-anchor="middle" x="265" y="-159.5" font-family="sans" font-size="10.00">create_genomes_file</text>
</g>
<!-- 6&#45;&gt;2 -->
<g id="edge6" class="edge">
<title>6&#45;&gt;2</title>
<path fill="none" stroke="grey" stroke-width="2" d="M262.53,-143.7C261.43,-135.98 260.1,-126.71 258.87,-118.11"/>
<polygon fill="grey" stroke="grey" stroke-width="2" points="262.32,-117.51 257.44,-108.1 255.39,-118.5 262.32,-117.51"/>
</g>
<!-- 7 -->
<g id="node8" class="node">
<title>7</title>
<path fill="none" stroke="#68d856" stroke-width="2" d="M167,-612C167,-612 137,-612 137,-612 131,-612 125,-606 125,-600 125,-600 125,-588 125,-588 125,-582 131,-576 137,-576 137,-576 167,-576 167,-576 173,-576 179,-582 179,-588 179,-588 179,-600 179,-600 179,-606 173,-612 167,-612"/>
<text text-anchor="middle" x="152" y="-591.5" font-family="sans" font-size="10.00">macs2</text>
</g>
<!-- 7&#45;&gt;3 -->
<g id="edge8" class="edge">
<title>7&#45;&gt;3</title>
<path fill="none" stroke="grey" stroke-width="2" d="M146.98,-575.93C144.07,-565.6 140.5,-552.12 138,-540 128.37,-493.25 121,-438.1 117.1,-405.99"/>
<polygon fill="grey" stroke="grey" stroke-width="2" points="120.57,-405.54 115.91,-396.03 113.62,-406.37 120.57,-405.54"/>
</g>
<!-- 7&#45;&gt;4 -->
<g id="edge10" class="edge">
<title>7&#45;&gt;4</title>
<path fill="none" stroke="grey" stroke-width="2" d="M155.69,-575.85C163.66,-538.75 182.56,-450.81 192.17,-406.1"/>
<polygon fill="grey" stroke="grey" stroke-width="2" points="195.62,-406.74 194.3,-396.23 188.77,-405.27 195.62,-406.74"/>
</g>
<!-- 7&#45;&gt;5 -->
<g id="edge12" class="edge">
<title>7&#45;&gt;5</title>
<path fill="none" stroke="grey" stroke-width="2" d="M126.8,-575.88C113.59,-566.89 97.21,-555.76 82.89,-546.03"/>
<polygon fill="grey" stroke="grey" stroke-width="2" points="84.53,-542.92 74.29,-540.19 80.6,-548.71 84.53,-542.92"/>
</g>
<!-- 8 -->
<g id="node9" class="node">
<title>8</title>
<path fill="none" stroke="#d8a456" stroke-width="2" d="M292.5,-468C292.5,-468 259.5,-468 259.5,-468 253.5,-468 247.5,-462 247.5,-456 247.5,-456 247.5,-444 247.5,-444 247.5,-438 253.5,-432 259.5,-432 259.5,-432 292.5,-432 292.5,-432 298.5,-432 304.5,-438 304.5,-444 304.5,-444 304.5,-456 304.5,-456 304.5,-462 298.5,-468 292.5,-468"/>
<text text-anchor="middle" x="276" y="-447.5" font-family="sans" font-size="10.00">clip_bed</text>
</g>
<!-- 7&#45;&gt;8 -->
<g id="edge16" class="edge">
<title>7&#45;&gt;8</title>
<path fill="none" stroke="grey" stroke-width="2" d="M179.19,-590.88C210.72,-586.8 261.36,-574.87 285,-540 297.34,-521.8 293.28,-496.52 287.18,-477.55"/>
<polygon fill="grey" stroke="grey" stroke-width="2" points="290.44,-476.25 283.78,-468.01 283.84,-478.6 290.44,-476.25"/>
</g>
<!-- 12 -->
<g id="node13" class="node">
<title>12</title>
<path fill="none" stroke="#d6d856" stroke-width="2" d="M263.5,-540C263.5,-540 192.5,-540 192.5,-540 186.5,-540 180.5,-534 180.5,-528 180.5,-528 180.5,-516 180.5,-516 180.5,-510 186.5,-504 192.5,-504 192.5,-504 263.5,-504 263.5,-504 269.5,-504 275.5,-510 275.5,-516 275.5,-516 275.5,-528 275.5,-528 275.5,-534 269.5,-540 263.5,-540"/>
<text text-anchor="middle" x="228" y="-519.5" font-family="sans" font-size="10.00">merge_domains</text>
</g>
<!-- 7&#45;&gt;12 -->
<g id="edge22" class="edge">
<title>7&#45;&gt;12</title>
<path fill="none" stroke="grey" stroke-width="2" d="M170.79,-575.7C180.17,-567.05 191.68,-556.45 201.91,-547.03"/>
<polygon fill="grey" stroke="grey" stroke-width="2" points="204.45,-549.45 209.43,-540.1 199.7,-544.3 204.45,-549.45"/>
</g>
<!-- 8&#45;&gt;3 -->
<g id="edge7" class="edge">
<title>8&#45;&gt;3</title>
<path fill="none" stroke="grey" stroke-width="2" d="M247.41,-436.65C223.5,-426.31 188.91,-411.37 160.94,-399.28"/>
<polygon fill="grey" stroke="grey" stroke-width="2" points="162.3,-396.06 151.74,-395.31 159.53,-402.49 162.3,-396.06"/>
</g>
<!-- 8&#45;&gt;4 -->
<g id="edge9" class="edge">
<title>8&#45;&gt;4</title>
<path fill="none" stroke="grey" stroke-width="2" d="M256.72,-431.7C247.08,-423.05 235.27,-412.45 224.77,-403.03"/>
<polygon fill="grey" stroke="grey" stroke-width="2" points="226.84,-400.18 217.06,-396.1 222.16,-405.39 226.84,-400.18"/>
</g>
<!-- 15 -->
<g id="node16" class="node">
<title>15</title>
<path fill="none" stroke="#80d856" stroke-width="2" d="M432.5,-396C432.5,-396 337.5,-396 337.5,-396 331.5,-396 325.5,-390 325.5,-384 325.5,-384 325.5,-372 325.5,-372 325.5,-366 331.5,-360 337.5,-360 337.5,-360 432.5,-360 432.5,-360 438.5,-360 444.5,-366 444.5,-372 444.5,-372 444.5,-384 444.5,-384 444.5,-390 438.5,-396 432.5,-396"/>
<text text-anchor="middle" x="385" y="-375.5" font-family="sans" font-size="10.00">create_domain_track</text>
</g>
<!-- 8&#45;&gt;15 -->
<g id="edge25" class="edge">
<title>8&#45;&gt;15</title>
<path fill="none" stroke="grey" stroke-width="2" d="M302.66,-431.88C316.78,-422.81 334.31,-411.55 349.56,-401.76"/>
<polygon fill="grey" stroke="grey" stroke-width="2" points="351.71,-404.54 358.23,-396.19 347.93,-398.65 351.71,-404.54"/>
</g>
<!-- 20 -->
<g id="node21" class="node">
<title>20</title>
<path fill="none" stroke="#d87556" stroke-width="2" d="M295,-396C295,-396 257,-396 257,-396 251,-396 245,-390 245,-384 245,-384 245,-372 245,-372 245,-366 251,-360 257,-360 257,-360 295,-360 295,-360 301,-360 307,-366 307,-372 307,-372 307,-384 307,-384 307,-390 301,-396 295,-396"/>
<text text-anchor="middle" x="276" y="-375.5" font-family="sans" font-size="10.00">ucsc_sort</text>
</g>
<!-- 8&#45;&gt;20 -->
<g id="edge30" class="edge">
<title>8&#45;&gt;20</title>
<path fill="none" stroke="grey" stroke-width="2" d="M276,-431.7C276,-423.98 276,-414.71 276,-406.11"/>
<polygon fill="grey" stroke="grey" stroke-width="2" points="279.5,-406.1 276,-396.1 272.5,-406.1 279.5,-406.1"/>
</g>
<!-- 9 -->
<g id="node10" class="node">
<title>9</title>
<path fill="none" stroke="#56d8d0" stroke-width="2" d="M82,-612C82,-612 16,-612 16,-612 10,-612 4,-606 4,-600 4,-600 4,-588 4,-588 4,-582 10,-576 16,-576 16,-576 82,-576 82,-576 88,-576 94,-582 94,-588 94,-588 94,-600 94,-600 94,-606 88,-612 82,-612"/>
<text text-anchor="middle" x="49" y="-591.5" font-family="sans" font-size="10.00">get_unique_tss</text>
</g>
<!-- 9&#45;&gt;5 -->
<g id="edge11" class="edge">
<title>9&#45;&gt;5</title>
<path fill="none" stroke="grey" stroke-width="2" d="M49,-575.7C49,-567.98 49,-558.71 49,-550.11"/>
<polygon fill="grey" stroke="grey" stroke-width="2" points="52.5,-550.1 49,-540.1 45.5,-550.1 52.5,-550.1"/>
</g>
<!-- 10 -->
<g id="node11" class="node">
<title>10</title>
<path fill="none" stroke="#c6d856" stroke-width="2" d="M316.5,-252C316.5,-252 251.5,-252 251.5,-252 245.5,-252 239.5,-246 239.5,-240 239.5,-240 239.5,-228 239.5,-228 239.5,-222 245.5,-216 251.5,-216 251.5,-216 316.5,-216 316.5,-216 322.5,-216 328.5,-222 328.5,-228 328.5,-228 328.5,-240 328.5,-240 328.5,-246 322.5,-252 316.5,-252"/>
<text text-anchor="middle" x="284" y="-231.5" font-family="sans" font-size="10.00">create_trackdb</text>
</g>
<!-- 10&#45;&gt;6 -->
<g id="edge13" class="edge">
<title>10&#45;&gt;6</title>
<path fill="none" stroke="grey" stroke-width="2" d="M279.3,-215.7C277.19,-207.9 274.64,-198.51 272.28,-189.83"/>
<polygon fill="grey" stroke="grey" stroke-width="2" points="275.64,-188.84 269.64,-180.1 268.88,-190.67 275.64,-188.84"/>
</g>
<!-- 11 -->
<g id="node12" class="node">
<title>11</title>
<path fill="none" stroke="#56d863" stroke-width="2" d="M180,-684C180,-684 124,-684 124,-684 118,-684 112,-678 112,-672 112,-672 112,-660 112,-660 112,-654 118,-648 124,-648 124,-648 180,-648 180,-648 186,-648 192,-654 192,-660 192,-660 192,-672 192,-672 192,-678 186,-684 180,-684"/>
<text text-anchor="middle" x="152" y="-663.5" font-family="sans" font-size="10.00">merge_reads</text>
</g>
<!-- 11&#45;&gt;7 -->
<g id="edge14" class="edge">
<title>11&#45;&gt;7</title>
<path fill="none" stroke="grey" stroke-width="2" d="M152,-647.7C152,-639.98 152,-630.71 152,-622.11"/>
<polygon fill="grey" stroke="grey" stroke-width="2" points="155.5,-622.1 152,-612.1 148.5,-622.1 155.5,-622.1"/>
</g>
<!-- 12&#45;&gt;8 -->
<g id="edge15" class="edge">
<title>12&#45;&gt;8</title>
<path fill="none" stroke="grey" stroke-width="2" d="M239.87,-503.7C245.5,-495.47 252.35,-485.48 258.57,-476.42"/>
<polygon fill="grey" stroke="grey" stroke-width="2" points="261.5,-478.33 264.27,-468.1 255.73,-474.37 261.5,-478.33"/>
</g>
<!-- 13 -->
<g id="node14" class="node">
<title>13</title>
<path fill="none" stroke="#8fd856" stroke-width="2" d="M429.5,-540C429.5,-540 344.5,-540 344.5,-540 338.5,-540 332.5,-534 332.5,-528 332.5,-528 332.5,-516 332.5,-516 332.5,-510 338.5,-504 344.5,-504 344.5,-504 429.5,-504 429.5,-504 435.5,-504 441.5,-510 441.5,-516 441.5,-516 441.5,-528 441.5,-528 441.5,-534 435.5,-540 429.5,-540"/>
<text text-anchor="middle" x="387" y="-519.5" font-family="sans" font-size="10.00">clean_chrom_sizes</text>
</g>
<!-- 13&#45;&gt;8 -->
<g id="edge17" class="edge">
<title>13&#45;&gt;8</title>
<path fill="none" stroke="grey" stroke-width="2" d="M359.85,-503.88C345.47,-494.81 327.62,-483.55 312.09,-473.76"/>
<polygon fill="grey" stroke="grey" stroke-width="2" points="313.58,-470.56 303.26,-468.19 309.85,-476.48 313.58,-470.56"/>
</g>
<!-- 13&#45;&gt;15 -->
<g id="edge26" class="edge">
<title>13&#45;&gt;15</title>
<path fill="none" stroke="grey" stroke-width="2" d="M386.76,-503.87C386.42,-479.67 385.79,-435.21 385.39,-406.39"/>
<polygon fill="grey" stroke="grey" stroke-width="2" points="388.88,-406.14 385.24,-396.19 381.88,-406.24 388.88,-406.14"/>
</g>
<!-- 16 -->
<g id="node17" class="node">
<title>16</title>
<path fill="none" stroke="#b6d856" stroke-width="2" d="M320.5,-324C320.5,-324 247.5,-324 247.5,-324 241.5,-324 235.5,-318 235.5,-312 235.5,-312 235.5,-300 235.5,-300 235.5,-294 241.5,-288 247.5,-288 247.5,-288 320.5,-288 320.5,-288 326.5,-288 332.5,-294 332.5,-300 332.5,-300 332.5,-312 332.5,-312 332.5,-318 326.5,-324 320.5,-324"/>
<text text-anchor="middle" x="284" y="-303.5" font-family="sans" font-size="10.00">create_bw_track</text>
</g>
<!-- 13&#45;&gt;16 -->
<g id="edge28" class="edge">
<title>13&#45;&gt;16</title>
<path fill="none" stroke="grey" stroke-width="2" d="M404.86,-503.65C434.67,-472.58 488.09,-406.33 454,-360 428.69,-325.6 381.19,-312.89 342.82,-308.48"/>
<polygon fill="grey" stroke="grey" stroke-width="2" points="343.07,-304.99 332.77,-307.49 342.38,-311.96 343.07,-304.99"/>
</g>
<!-- 14 -->
<g id="node15" class="node">
<title>14</title>
<path fill="none" stroke="#56d88a" stroke-width="2" d="M82,-684C82,-684 16,-684 16,-684 10,-684 4,-678 4,-672 4,-672 4,-660 4,-660 4,-654 10,-648 16,-648 16,-648 82,-648 82,-648 88,-648 94,-654 94,-660 94,-660 94,-672 94,-672 94,-678 88,-684 82,-684"/>
<text text-anchor="middle" x="49" y="-663.5" font-family="sans" font-size="10.00">get_genes_bed</text>
</g>
<!-- 14&#45;&gt;9 -->
<g id="edge18" class="edge">
<title>14&#45;&gt;9</title>
<path fill="none" stroke="grey" stroke-width="2" d="M49,-647.7C49,-639.98 49,-630.71 49,-622.11"/>
<polygon fill="grey" stroke="grey" stroke-width="2" points="52.5,-622.1 49,-612.1 45.5,-622.1 52.5,-622.1"/>
</g>
<!-- 15&#45;&gt;10 -->
<g id="edge19" class="edge">
<title>15&#45;&gt;10</title>
<path fill="none" stroke="grey" stroke-width="2" d="M378.97,-359.87C371.89,-341.12 358.91,-310.71 342,-288 334.17,-277.49 324.05,-267.4 314.45,-258.9"/>
<polygon fill="grey" stroke="grey" stroke-width="2" points="316.45,-256 306.58,-252.16 311.9,-261.32 316.45,-256"/>
</g>
<!-- 16&#45;&gt;10 -->
<g id="edge20" class="edge">
<title>16&#45;&gt;10</title>
<path fill="none" stroke="grey" stroke-width="2" d="M284,-287.7C284,-279.98 284,-270.71 284,-262.11"/>
<polygon fill="grey" stroke="grey" stroke-width="2" points="287.5,-262.1 284,-252.1 280.5,-262.1 287.5,-262.1"/>
</g>
<!-- 17 -->
<g id="node18" class="node">
<title>17</title>
<path fill="none" stroke="#566bd8" stroke-width="2" d="M173,-756C173,-756 131,-756 131,-756 125,-756 119,-750 119,-744 119,-744 119,-732 119,-732 119,-726 125,-720 131,-720 131,-720 173,-720 173,-720 179,-720 185,-726 185,-732 185,-732 185,-744 185,-744 185,-750 179,-756 173,-756"/>
<text text-anchor="middle" x="152" y="-735.5" font-family="sans" font-size="10.00">bamtobed</text>
</g>
<!-- 17&#45;&gt;11 -->
<g id="edge21" class="edge">
<title>17&#45;&gt;11</title>
<path fill="none" stroke="grey" stroke-width="2" d="M152,-719.7C152,-711.98 152,-702.71 152,-694.11"/>
<polygon fill="grey" stroke="grey" stroke-width="2" points="155.5,-694.1 152,-684.1 148.5,-694.1 155.5,-694.1"/>
</g>
<!-- 18 -->
<g id="node19" class="node">
<title>18</title>
<path fill="none" stroke="#56d86b" stroke-width="2" d="M440,-612C440,-612 334,-612 334,-612 328,-612 322,-606 322,-600 322,-600 322,-588 322,-588 322,-582 328,-576 334,-576 334,-576 440,-576 440,-576 446,-576 452,-582 452,-588 452,-588 452,-600 452,-600 452,-606 446,-612 440,-612"/>
<text text-anchor="middle" x="387" y="-591.5" font-family="sans" font-size="10.00">download_chrom_sizes</text>
</g>
<!-- 18&#45;&gt;13 -->
<g id="edge23" class="edge">
<title>18&#45;&gt;13</title>
<path fill="none" stroke="grey" stroke-width="2" d="M387,-575.7C387,-567.98 387,-558.71 387,-550.11"/>
<polygon fill="grey" stroke="grey" stroke-width="2" points="390.5,-550.1 387,-540.1 383.5,-550.1 390.5,-550.1"/>
</g>
<!-- 19 -->
<g id="node20" class="node">
<title>19</title>
<path fill="none" stroke="#59d856" stroke-width="2" d="M86,-756C86,-756 12,-756 12,-756 6,-756 0,-750 0,-744 0,-744 0,-732 0,-732 0,-726 6,-720 12,-720 12,-720 86,-720 86,-720 92,-720 98,-726 98,-732 98,-732 98,-744 98,-744 98,-750 92,-756 86,-756"/>
<text text-anchor="middle" x="49" y="-735.5" font-family="sans" font-size="10.00">download_genes</text>
</g>
<!-- 19&#45;&gt;14 -->
<g id="edge24" class="edge">
<title>19&#45;&gt;14</title>
<path fill="none" stroke="grey" stroke-width="2" d="M49,-719.7C49,-711.98 49,-702.71 49,-694.11"/>
<polygon fill="grey" stroke="grey" stroke-width="2" points="52.5,-694.1 49,-684.1 45.5,-694.1 52.5,-694.1"/>
</g>
<!-- 20&#45;&gt;16 -->
<g id="edge27" class="edge">
<title>20&#45;&gt;16</title>
<path fill="none" stroke="grey" stroke-width="2" d="M277.98,-359.7C278.86,-351.98 279.92,-342.71 280.9,-334.11"/>
<polygon fill="grey" stroke="grey" stroke-width="2" points="284.39,-334.44 282.05,-324.1 277.43,-333.64 284.39,-334.44"/>
</g>
<!-- 21 -->
<g id="node22" class="node">
<title>21</title>
<path fill="none" stroke="#56a2d8" stroke-width="2" d="M195,-828C195,-828 109,-828 109,-828 103,-828 97,-822 97,-816 97,-816 97,-804 97,-804 97,-798 103,-792 109,-792 109,-792 195,-792 195,-792 201,-792 207,-798 207,-804 207,-804 207,-816 207,-816 207,-822 201,-828 195,-828"/>
<text text-anchor="middle" x="152" y="-807.5" font-family="sans" font-size="10.00">remove_duplicates</text>
</g>
<!-- 21&#45;&gt;17 -->
<g id="edge29" class="edge">
<title>21&#45;&gt;17</title>
<path fill="none" stroke="grey" stroke-width="2" d="M152,-791.7C152,-783.98 152,-774.71 152,-766.11"/>
<polygon fill="grey" stroke="grey" stroke-width="2" points="155.5,-766.1 152,-756.1 148.5,-766.1 155.5,-766.1"/>
</g>
<!-- 22 -->
<g id="node23" class="node">
<title>22</title>
<path fill="none" stroke="#d88d56" stroke-width="2" d="M167,-900C167,-900 137,-900 137,-900 131,-900 125,-894 125,-888 125,-888 125,-876 125,-876 125,-870 131,-864 137,-864 137,-864 167,-864 167,-864 173,-864 179,-870 179,-876 179,-876 179,-888 179,-888 179,-894 173,-900 167,-900"/>
<text text-anchor="middle" x="152" y="-879.5" font-family="sans" font-size="10.00">filter</text>
</g>
<!-- 22&#45;&gt;21 -->
<g id="edge31" class="edge">
<title>22&#45;&gt;21</title>
<path fill="none" stroke="grey" stroke-width="2" d="M152,-863.7C152,-855.98 152,-846.71 152,-838.11"/>
<polygon fill="grey" stroke="grey" stroke-width="2" points="155.5,-838.1 152,-828.1 148.5,-838.1 155.5,-838.1"/>
</g>
<!-- 23 -->
<g id="node24" class="node">
<title>23</title>
<path fill="none" stroke="#d88556" stroke-width="2" d="M183,-972C183,-972 121,-972 121,-972 115,-972 109,-966 109,-960 109,-960 109,-948 109,-948 109,-942 115,-936 121,-936 121,-936 183,-936 183,-936 189,-936 195,-942 195,-948 195,-948 195,-960 195,-960 195,-966 189,-972 183,-972"/>
<text text-anchor="middle" x="152" y="-951.5" font-family="sans" font-size="10.00">samtools_sort</text>
</g>
<!-- 23&#45;&gt;22 -->
<g id="edge32" class="edge">
<title>23&#45;&gt;22</title>
<path fill="none" stroke="grey" stroke-width="2" d="M152,-935.7C152,-927.98 152,-918.71 152,-910.11"/>
<polygon fill="grey" stroke="grey" stroke-width="2" points="155.5,-910.1 152,-900.1 148.5,-910.1 155.5,-910.1"/>
</g>
<!-- 24 -->
<g id="node25" class="node">
<title>24</title>
<path fill="none" stroke="#56a9d8" stroke-width="2" d="M168,-1044C168,-1044 136,-1044 136,-1044 130,-1044 124,-1038 124,-1032 124,-1032 124,-1020 124,-1020 124,-1014 130,-1008 136,-1008 136,-1008 168,-1008 168,-1008 174,-1008 180,-1014 180,-1020 180,-1020 180,-1032 180,-1032 180,-1038 174,-1044 168,-1044"/>
<text text-anchor="middle" x="152" y="-1023.5" font-family="sans" font-size="10.00">bowtie2</text>
</g>
<!-- 24&#45;&gt;23 -->
<g id="edge33" class="edge">
<title>24&#45;&gt;23</title>
<path fill="none" stroke="grey" stroke-width="2" d="M152,-1007.7C152,-999.98 152,-990.71 152,-982.11"/>
<polygon fill="grey" stroke="grey" stroke-width="2" points="155.5,-982.1 152,-972.1 148.5,-982.1 155.5,-982.1"/>
</g>
<!-- 25 -->
<g id="node26" class="node">
<title>25</title>
<path fill="none" stroke="#9fd856" stroke-width="2" d="M123,-1116C123,-1116 67,-1116 67,-1116 61,-1116 55,-1110 55,-1104 55,-1104 55,-1092 55,-1092 55,-1086 61,-1080 67,-1080 67,-1080 123,-1080 123,-1080 129,-1080 135,-1086 135,-1092 135,-1092 135,-1104 135,-1104 135,-1110 129,-1116 123,-1116"/>
<text text-anchor="middle" x="95" y="-1095.5" font-family="sans" font-size="10.00">trimmomatic</text>
</g>
<!-- 25&#45;&gt;24 -->
<g id="edge34" class="edge">
<title>25&#45;&gt;24</title>
<path fill="none" stroke="grey" stroke-width="2" d="M109.09,-1079.7C115.92,-1071.3 124.26,-1061.07 131.76,-1051.86"/>
<polygon fill="grey" stroke="grey" stroke-width="2" points="134.47,-1054.07 138.07,-1044.1 129.04,-1049.65 134.47,-1054.07"/>
</g>
<!-- 26 -->
<g id="node27" class="node">
<title>26</title>
<path fill="none" stroke="#56d8d8" stroke-width="2" d="M263.5,-1116C263.5,-1116 174.5,-1116 174.5,-1116 168.5,-1116 162.5,-1110 162.5,-1104 162.5,-1104 162.5,-1092 162.5,-1092 162.5,-1086 168.5,-1080 174.5,-1080 174.5,-1080 263.5,-1080 263.5,-1080 269.5,-1080 275.5,-1086 275.5,-1092 275.5,-1092 275.5,-1104 275.5,-1104 275.5,-1110 269.5,-1116 263.5,-1116"/>
<text text-anchor="middle" x="219" y="-1095.5" font-family="sans" font-size="10.00">unzip_bowtie_index</text>
</g>
<!-- 26&#45;&gt;24 -->
<g id="edge35" class="edge">
<title>26&#45;&gt;24</title>
<path fill="none" stroke="grey" stroke-width="2" d="M202.44,-1079.7C194.32,-1071.22 184.41,-1060.86 175.53,-1051.58"/>
<polygon fill="grey" stroke="grey" stroke-width="2" points="177.81,-1048.91 168.37,-1044.1 172.76,-1053.75 177.81,-1048.91"/>
</g>
<!-- 27 -->
<g id="node28" class="node">
<title>27</title>
<path fill="none" stroke="#56d8b9" stroke-width="2" d="M132,-1188C132,-1188 20,-1188 20,-1188 14,-1188 8,-1182 8,-1176 8,-1176 8,-1164 8,-1164 8,-1158 14,-1152 20,-1152 20,-1152 132,-1152 132,-1152 138,-1152 144,-1158 144,-1164 144,-1164 144,-1176 144,-1176 144,-1182 138,-1188 132,-1188"/>
<text text-anchor="middle" x="76" y="-1167.5" font-family="sans" font-size="10.00">rename_dumped_sra_se</text>
</g>
<!-- 27&#45;&gt;25 -->
<g id="edge36" class="edge">
<title>27&#45;&gt;25</title>
<path fill="none" stroke="grey" stroke-width="2" d="M80.7,-1151.7C82.81,-1143.9 85.36,-1134.51 87.72,-1125.83"/>
<polygon fill="grey" stroke="grey" stroke-width="2" points="91.12,-1126.67 90.36,-1116.1 84.36,-1124.84 91.12,-1126.67"/>
</g>
<!-- 28 -->
<g id="node29" class="node">
<title>28</title>
<path fill="none" stroke="#56d89a" stroke-width="2" d="M284,-1188C284,-1188 174,-1188 174,-1188 168,-1188 162,-1182 162,-1176 162,-1176 162,-1164 162,-1164 162,-1158 168,-1152 174,-1152 174,-1152 284,-1152 284,-1152 290,-1152 296,-1158 296,-1164 296,-1164 296,-1176 296,-1176 296,-1182 290,-1188 284,-1188"/>
<text text-anchor="middle" x="229" y="-1167.5" font-family="sans" font-size="10.00">download_bowtie_index</text>
</g>
<!-- 28&#45;&gt;26 -->
<g id="edge37" class="edge">
<title>28&#45;&gt;26</title>
<path fill="none" stroke="grey" stroke-width="2" d="M226.53,-1151.7C225.43,-1143.98 224.1,-1134.71 222.87,-1126.11"/>
<polygon fill="grey" stroke="grey" stroke-width="2" points="226.32,-1125.51 221.44,-1116.1 219.39,-1126.5 226.32,-1125.51"/>
</g>
<!-- 29 -->
<g id="node30" class="node">
<title>29</title>
<path fill="none" stroke="#d8c356" stroke-width="2" d="M109.5,-1260C109.5,-1260 42.5,-1260 42.5,-1260 36.5,-1260 30.5,-1254 30.5,-1248 30.5,-1248 30.5,-1236 30.5,-1236 30.5,-1230 36.5,-1224 42.5,-1224 42.5,-1224 109.5,-1224 109.5,-1224 115.5,-1224 121.5,-1230 121.5,-1236 121.5,-1236 121.5,-1248 121.5,-1248 121.5,-1254 115.5,-1260 109.5,-1260"/>
<text text-anchor="middle" x="76" y="-1239.5" font-family="sans" font-size="10.00">fastq_dump_se</text>
</g>
<!-- 29&#45;&gt;27 -->
<g id="edge38" class="edge">
<title>29&#45;&gt;27</title>
<path fill="none" stroke="grey" stroke-width="2" d="M76,-1223.7C76,-1215.98 76,-1206.71 76,-1198.11"/>
<polygon fill="grey" stroke="grey" stroke-width="2" points="79.5,-1198.1 76,-1188.1 72.5,-1198.1 79.5,-1198.1"/>
</g>
<!-- 30 -->
<g id="node31" class="node">
<title>30</title>
<path fill="none" stroke="#56c1d8" stroke-width="2" d="M92.5,-1332C92.5,-1332 59.5,-1332 59.5,-1332 53.5,-1332 47.5,-1326 47.5,-1320 47.5,-1320 47.5,-1308 47.5,-1308 47.5,-1302 53.5,-1296 59.5,-1296 59.5,-1296 92.5,-1296 92.5,-1296 98.5,-1296 104.5,-1302 104.5,-1308 104.5,-1308 104.5,-1320 104.5,-1320 104.5,-1326 98.5,-1332 92.5,-1332"/>
<text text-anchor="middle" x="76" y="-1311.5" font-family="sans" font-size="10.00">prefetch</text>
</g>
<!-- 30&#45;&gt;29 -->
<g id="edge39" class="edge">
<title>30&#45;&gt;29</title>
<path fill="none" stroke="grey" stroke-width="2" d="M76,-1295.7C76,-1287.98 76,-1278.71 76,-1270.11"/>
<polygon fill="grey" stroke="grey" stroke-width="2" points="79.5,-1270.1 76,-1260.1 72.5,-1270.1 79.5,-1270.1"/>
</g>
</g>
</svg>
